PathFileType	4	(X/Y/Z)	 New Session 105.trc
DataRate	CameraRate	NumFrames	NumMarkers	Units	OrigDataRate	OrigDataStartFrame	OrigNumFrames
100	100	12	14	m	100	534	711
Frame#	Time	C7			T8			IJ			PX			AA			AC			AI			TS			SC			GH			LE			ME			US			RS			
		X1	Y1	Z1	X2	Y2	Z2	X3	Y3	Z3	X4	Y4	Z4	X5	Y5	Z5	X6	Y6	Z6	X7	Y7	Z7	X8	Y8	Z8	X9	Y9	Z9	X10	Y10	Z10	X11	Y11	Z11	X12	Y12	Z12	X13	Y13	Z13	X14	Y14	Z14	
534	5.3400	0.011931	0.102138	0.158066	0.025054	-0.114771	0.223922	0.006885	0.000817	-0.009991	0.020040	-0.142157	-0.077623	0.196133	0.040924	0.166550	0.146479	0.081461	0.093534	0.088393	0.028143	0.206105	0.106019	-0.090118	0.222550	0.030602	0.011667	-0.004609	0.200073	0.071539	0.134669	0.445015	-0.020329	0.062699	0.439841	-0.115604	0.074297	0.516449	-0.120940	-0.193343	0.445502	-0.084915	-0.204702	
535	5.3500	0.012082	0.102132	0.157998	0.025109	-0.114782	0.223904	0.006974	0.000817	-0.010011	0.020044	-0.142161	-0.077708	0.196495	0.040258	0.166449	0.147023	0.081089	0.093277	0.088542	0.028063	0.205967	0.106019	-0.090185	0.222560	0.030723	0.011621	-0.004635	0.200968	0.070787	0.134515	0.444584	-0.026577	0.063391	0.437206	-0.121870	0.074594	0.514898	-0.127595	-0.192713	0.444755	-0.090059	-0.204287	
536	5.3600	0.012255	0.102118	0.157940	0.025168	-0.114798	0.223888	0.007031	0.000832	-0.010020	0.020054	-0.142162	-0.077768	0.196863	0.039586	0.166385	0.147562	0.080765	0.093087	0.088683	0.027962	0.205829	0.106019	-0.090259	0.222566	0.030844	0.011568	-0.004663	0.201918	0.070037	0.134393	0.444032	-0.033006	0.064140	0.434316	-0.128296	0.074838	0.513184	-0.134292	-0.192105	0.443889	-0.095192	-0.203865	
537	5.3700	0.012464	0.102102	0.157892	0.025223	-0.114821	0.223876	0.007072	0.000860	-0.010025	0.020078	-0.142165	-0.077804	0.197216	0.038953	0.166364	0.148173	0.080501	0.092982	0.088818	0.027851	0.205701	0.106022	-0.090338	0.222578	0.030970	0.011514	-0.004688	0.202871	0.069238	0.134313	0.443359	-0.039582	0.064935	0.431237	-0.134838	0.075062	0.511295	-0.141029	-0.191528	0.442953	-0.100341	-0.203410	
538	5.3800	0.012718	0.102087	0.157856	0.025269	-0.114852	0.223869	0.007130	0.000897	-0.010034	0.020118	-0.142175	-0.077823	0.197554	0.038347	0.166382	0.148878	0.080240	0.092924	0.088952	0.027739	0.205593	0.106030	-0.090426	0.222611	0.031105	0.011464	-0.004705	0.203804	0.068330	0.134275	0.442560	-0.046254	0.065764	0.428003	-0.141415	0.075253	0.509229	-0.147794	-0.190969	0.441982	-0.105516	-0.202901	
539	5.3900	0.013018	0.102072	0.157832	0.025304	-0.114892	0.223868	0.007233	0.000937	-0.010054	0.020178	-0.142191	-0.077833	0.197926	0.037706	0.166411	0.149617	0.079873	0.092862	0.089100	0.027630	0.205512	0.106041	-0.090526	0.222676	0.031259	0.011426	-0.004712	0.204709	0.067298	0.134261	0.441616	-0.052966	0.066614	0.424605	-0.147929	0.075363	0.506996	-0.154568	-0.190407	0.440977	-0.110714	-0.202330	
540	5.4000	0.013362	0.102052	0.157818	0.025327	-0.114942	0.223872	0.007395	0.000974	-0.010085	0.020256	-0.142209	-0.077842	0.198378	0.036961	0.166393	0.150344	0.079385	0.092768	0.089275	0.027523	0.205456	0.106052	-0.090647	0.222781	0.031441	0.011394	-0.004710	0.205582	0.066187	0.134237	0.440505	-0.059664	0.067473	0.421042	-0.154281	0.075377	0.504625	-0.161321	-0.189822	0.439905	-0.115932	-0.201711	
541	5.4100	0.013737	0.102023	0.157815	0.025342	-0.114997	0.223878	0.007614	0.001001	-0.010123	0.020347	-0.142226	-0.077857	0.198889	0.036101	0.166293	0.151047	0.078829	0.092641	0.089495	0.027410	0.205421	0.106059	-0.090793	0.222923	0.031656	0.011359	-0.004705	0.206471	0.065063	0.134166	0.439213	-0.066290	0.068323	0.417338	-0.160390	0.075335	0.502145	-0.168022	-0.189213	0.438709	-0.121178	-0.201083	
542	5.4200	0.014130	0.101981	0.157822	0.025357	-0.115056	0.223888	0.007877	0.001011	-0.010162	0.020445	-0.142238	-0.077879	0.199404	0.035173	0.166121	0.151728	0.078237	0.092487	0.089763	0.027279	0.205400	0.106061	-0.090969	0.223086	0.031904	0.011306	-0.004699	0.207410	0.063966	0.134048	0.437747	-0.072782	0.069143	0.413562	-0.166248	0.075325	0.499571	-0.174659	-0.188592	0.437345	-0.126464	-0.200482	
543	5.4300	0.014534	0.101922	0.157848	0.025382	-0.115116	0.223906	0.008167	0.001000	-0.010190	0.020543	-0.142244	-0.077907	0.199905	0.034233	0.165961	0.152415	0.077651	0.092343	0.090074	0.027119	0.205386	0.106057	-0.091177	0.223249	0.032179	0.011228	-0.004691	0.208359	0.062892	0.133927	0.436130	-0.079084	0.069913	0.409823	-0.171888	0.075428	0.496908	-0.181242	-0.187969	0.435802	-0.131794	-0.199928	
544	5.4400	0.014954	0.101847	0.157897	0.025424	-0.115171	0.223941	0.008468	0.000973	-0.010198	0.020634	-0.142241	-0.077938	0.200418	0.033371	0.165932	0.153134	0.077122	0.092274	0.090408	0.026928	0.205378	0.106048	-0.091414	0.223400	0.032473	0.011132	-0.004677	0.209271	0.061842	0.133863	0.434407	-0.085157	0.070622	0.406195	-0.177316	0.075656	0.494147	-0.187796	-0.187345	0.434102	-0.137165	-0.199423	
545	5.4500	0.015393	0.101767	0.157967	0.025485	-0.115221	0.223993	0.008772	0.000938	-0.010182	0.020716	-0.142229	-0.077970	0.200933	0.032634	0.166057	0.153832	0.076604	0.092295	0.090741	0.026707	0.205377	0.106039	-0.091676	0.223532	0.032781	0.011042	-0.004647	0.210149	0.060832	0.133896	0.432636	-0.090983	0.071270	0.402682	-0.182533	0.075968	0.491272	-0.194344	-0.186720	0.432285	-0.142575	-0.198948	
